<?xml version="1.0" encoding="utf-8"?><svg xml:space="preserve" viewBox="0 0 100 100" y="0" x="0" xmlns="http://www.w3.org/2000/svg" id="圖層_1" version="1.1" width="200px" height="200px" xmlns:xlink="http://www.w3.org/1999/xlink" style="width:100%;height:100%;background-size:initial;background-repeat-y:initial;background-repeat-x:initial;background-position-y:initial;background-position-x:initial;background-origin:initial;background-image:initial;background-color:inherit;background-clip:initial;background-attachment:initial;animation-play-state:paused" ><g class="ldl-scale" style="transform-origin:50% 50%;transform:rotate(0deg) scale(0.8, 0.8);animation-play-state:paused" ><circle fill="#353035" r="39.7" cy="50.1" cx="50.1" style="fill:rgb(53, 48, 53);animation-play-state:paused" ></circle>
<path fill="#ffdc6c" d="M82.8 26.4C75.4 16.3 63.5 9.8 50.1 9.8c-6.3 0-12.3 1.5-17.7 4.1-1.8.9-3.8 1.1-5.7.5-1.7-.5-3.6-.6-5.5-.2-4.1.9-7.4 4.2-8.2 8.3-.4 2-.2 3.9.3 5.6.6 1.9.6 4.1-.2 5.9-2.2 5-3.4 10.4-3.4 16.2 0 11.7 5 22.3 13 29.7-4.7-6.8-7.6-14.9-7.6-23.8 0-5.8 1.2-11.4 3.5-16.4 1.1-2.6 3.6-4.1 6.4-4.6 1-.1 2-.4 3-.9 2.2-1.1 4-2.9 5.2-5.1.6-1.1.9-2.2 1-3.2.4-2.8 2-5.4 4.6-6.6 5.1-2.3 10.7-3.6 16.7-3.6 10.5.1 20.1 4.1 27.3 10.7z" style="fill:rgb(255, 220, 108);animation-play-state:paused" ></path>
<metadata xmlns:d="https://loading.io/stock/" style="animation-play-state:paused" ><d:name style="animation-play-state:paused" >eclipse</d:name>
<d:tags style="animation-play-state:paused" >run,solar,moon,ring,eclipse,weather</d:tags>
<d:license style="animation-play-state:paused" >pro</d:license>
<d:slug style="animation-play-state:paused" >6f9lfy</d:slug></metadata></g><!-- generated by https://loading.io/ --></svg>